HIERARCHY
ROOT root
{
	OFFSET	0	13.1	24.9
	CHANNELS 6  Xposition Yposition Zposition Xrotation Yrotation Zrotation
	JOINT spine_1
	{
		OFFSET	0	9.99999	0
		CHANNELS 3  Xrotation Yrotation Zrotation
		JOINT spine_2
		{
			OFFSET	0	112	-10
			CHANNELS 3  Xrotation Yrotation Zrotation
			JOINT spine_3
			{
				OFFSET	0	206.5	19.3
				CHANNELS 3  Xrotation Yrotation Zrotation
				JOINT spine_4
				{
					OFFSET	0	110.4	14.6
					CHANNELS 3  Xrotation Yrotation Zrotation
					JOINT neck_1
					{
						OFFSET	0	71.8	-50.3
						CHANNELS 3  Xrotation Yrotation Zrotation
						JOINT neck_2
						{
							OFFSET	0	86.2	-25.8
							CHANNELS 3  Xrotation Yrotation Zrotation
							JOINT head_ee
							{
								OFFSET	0	179.8	-8.7
								CHANNELS 3  Xrotation Yrotation Zrotation
								End Site
								{
									OFFSET	1	0	0
								}
							}
						}
					}
					JOINT left_clavicle
					{
						OFFSET	-43.2	22.4	-70.8
						CHANNELS 3  Xrotation Yrotation Zrotation
						JOINT left_shoulder
						{
							OFFSET	-93.9	-5.79999	48.7
							CHANNELS 3  Xrotation Yrotation Zrotation
							JOINT left_elbow
							{
								OFFSET	-291.4	-30.8	15.2
								CHANNELS 3  Xrotation Yrotation Zrotation
								JOINT left_lowarm_twist
								{
									OFFSET	-110.7	-3.89999	13.6
									CHANNELS 3  Xrotation Yrotation Zrotation
									JOINT left_hand
									{
										OFFSET	-110.7	-3.89999	13.6
										CHANNELS 3  Xrotation Yrotation Zrotation
										JOINT left_ee
										{
											OFFSET	-80.8	-5.10001	12.1
											CHANNELS 3  Xrotation Yrotation Zrotation
											End Site
											{
												OFFSET	1	0	0
											}
										}
									}
								}
							}
						}
					}
					JOINT right_clavicle
					{
						OFFSET	43.2	22.4	-70.8
						CHANNELS 3  Xrotation Yrotation Zrotation
						JOINT right_shoulder
						{
							OFFSET	93.9	-5.79999	48.7
							CHANNELS 3  Xrotation Yrotation Zrotation
							JOINT right_elbow
							{
								OFFSET	291.4	-30.8	15.2
								CHANNELS 3  Xrotation Yrotation Zrotation
								JOINT right_lowarm_twist
								{
									OFFSET	110.7	-3.89999	13.6
									CHANNELS 3  Xrotation Yrotation Zrotation
									JOINT right_hand
									{
										OFFSET	110.7	-3.89999	13.6
										CHANNELS 3  Xrotation Yrotation Zrotation
										JOINT right_ee
										{
											OFFSET	80.8	-5.10001	12.1
											CHANNELS 3  Xrotation Yrotation Zrotation
											End Site
											{
												OFFSET	1	0	0
											}
										}
									}
								}
							}
						}
					}
				}
			}
		}
	}
	JOINT left_hip
	{
		OFFSET	-82.8	-127.5	0.300001
		CHANNELS 3  Xrotation Yrotation Zrotation
		JOINT left_knee
		{
			OFFSET	-28.2	-396.7	2.2
			CHANNELS 3  Xrotation Yrotation Zrotation
			JOINT left_ankle
			{
				OFFSET	-11.7	-411.3	35.4
				CHANNELS 3  Xrotation Yrotation Zrotation
				JOINT left_toes
				{
					OFFSET	0	-60	-88.6
					CHANNELS 3  Xrotation Yrotation Zrotation
					JOINT left_foot_ee
					{
						OFFSET	-22.5	-16.5	-42.2
						CHANNELS 3  Xrotation Yrotation Zrotation
						End Site
						{
							OFFSET	1	0	0
						}
					}
				}
			}
		}
	}
	JOINT right_hip
	{
		OFFSET	82.8	-127.5	0.300001
		CHANNELS 3  Xrotation Yrotation Zrotation
		JOINT right_knee
		{
			OFFSET	28.2	-396.7	2.2
			CHANNELS 3  Xrotation Yrotation Zrotation
			JOINT right_ankle
			{
				OFFSET	11.7	-411.3	35.4
				CHANNELS 3  Xrotation Yrotation Zrotation
				JOINT right_toes
				{
					OFFSET	0	-60	-88.6
					CHANNELS 3  Xrotation Yrotation Zrotation
					JOINT right_foot_ee
					{
						OFFSET	22.5	-16.5	-42.2
						CHANNELS 3  Xrotation Yrotation Zrotation
						End Site
						{
							OFFSET	1	0	0
						}
					}
				}
			}
		}
	}
}
MOTION
Frames: 16
Frame Time: 0.02
3489.70679547 734.374 -1493.59053392 147.306378583 76.8688904539 -150.363052091 -1.87826 -0.0407221 0.0687629 -1.87825 -0.0450152 0.0660323 -1.87831 -0.0596629 0.0531692 -1.87831 -0.050517 0.0619246 -13.4217 0.244887 2.10751 -13.4096 -0.841745 2.08238 -0.0 0.0 -0.0 3.4606 6.31067 7.00316 -14.2745 -18.0386 66.8475 1.20063 -30.7412 0.330058 -38.8456 -2.82924 3.97653 3.99963 24.4004 34.953 -0.0 0.0 -0.0 5.86248 14.2123 -10.7408 -0.226447 16.4395 -65.835 0.822246 22.1617 -0.161036 40.6972 0.386021 5.0767 1.83082 22.6915 -2.38857 0.0 0.0 0.0 19.0235 0.549278 -0.517017 -43.2091 -0.68345 6.44159 26.1672 15.9921 -3.51226 -13.7172 0.0 0.0 -0.0 0.0 -0.0 -18.4177 -1.26078 -1.84254 0.86986 0.0367955 0.128412 41.1772 -13.8634 5.02009 -33.0051 0.0 0.0 0.0 0.0 0.0 
3490.46305492 734.374 -1496.71358782 141.633132706 78.5975752609 -144.55813746 -1.87826 -0.0407221 0.0687629 -1.87825 -0.0450152 0.0660323 -1.87831 -0.0596629 0.0531692 -1.87831 -0.050517 0.0619246 -13.4217 0.244887 2.10751 -13.4096 -0.841745 2.08238 -0.0 0.0 -0.0 3.4606 6.31067 7.00316 -14.2745 -18.0386 66.8475 1.20063 -30.7412 0.330058 -38.8456 -2.82924 3.97653 3.99963 24.4004 34.953 -0.0 0.0 -0.0 5.86248 14.2123 -10.7408 -0.226447 16.4395 -65.835 0.822246 22.1617 -0.161036 40.6972 0.386021 5.0767 1.83082 22.6915 -2.38857 0.0 0.0 0.0 19.0235 0.549278 -0.517017 -43.2091 -0.68345 6.44159 26.1672 15.9921 -3.51226 -13.7172 0.0 0.0 -0.0 0.0 -0.0 -18.4177 -1.26078 -1.84254 0.86986 0.0367955 0.128412 41.1772 -13.8634 5.02009 -33.0051 0.0 0.0 0.0 0.0 0.0 
3490.87426508 734.374 -1498.22801988 138.202589224 79.390622669 -141.063438681 -1.87826 -0.0407221 0.0687629 -1.87825 -0.0450152 0.0660323 -1.87831 -0.0596629 0.0531692 -1.87831 -0.050517 0.0619246 -13.4217 0.244887 2.10751 -13.4096 -0.841745 2.08238 -0.0 0.0 -0.0 3.4606 6.31067 7.00316 -14.2745 -18.0386 66.8475 1.20063 -30.7412 0.330058 -38.8456 -2.82924 3.97653 3.99963 24.4004 34.953 -0.0 0.0 -0.0 5.86248 14.2123 -10.7408 -0.226447 16.4395 -65.835 0.822246 22.1617 -0.161036 40.6972 0.386021 5.0767 1.83082 22.6915 -2.38857 0.0 0.0 0.0 19.0235 0.549278 -0.517017 -43.2091 -0.68345 6.44159 26.1672 15.9921 -3.51226 -13.7172 0.0 0.0 -0.0 0.0 -0.0 -18.4177 -1.26078 -1.84254 0.86986 0.0367955 0.128412 41.1772 -13.8634 5.02009 -33.0051 0.0 0.0 0.0 0.0 0.0 
3482.69821594 735.879 -1498.03471225 145.464921793 77.730098272 -148.913299545 -1.89638 0.00987194 0.148407 -1.89637 0.000408416 0.148734 -1.89636 -0.0356591 0.144397 -1.89639 -0.0124068 0.148217 -12.5377 0.248705 2.45537 -12.5212 -1.0876 2.42397 -0.0 0.0 -0.0 3.30746 6.58904 6.73885 -16.3309 -17.2359 66.9461 1.02683 -26.9601 0.246148 -39.0996 -2.85592 3.99525 4.38312 24.9064 37.8684 -0.0 0.0 -0.0 6.11271 14.9948 -11.2242 1.92311 17.4305 -65.972 0.920557 24.5134 -0.19999 41.1079 0.408141 5.12436 1.83553 22.5136 -2.50235 0.0 0.0 0.0 20.1347 0.766494 -0.0368735 -40.8603 -0.522405 6.11829 22.989 14.4604 -3.12165 -14.6785 0.0 0.0 -0.0 0.0 -0.0 -18.9988 -0.187618 -2.42414 1.02464 0.0435473 0.151203 41.3721 -11.603 5.00954 -32.9573 0.0 0.0 0.0 0.0 0.0 
3471.29418894 730.924 -1495.33790366 151.072756452 75.6583931156 -154.659574827 -1.90729 0.0716188 0.197238 -1.90727 0.0589229 0.201396 -1.90704 0.00830531 0.209674 -1.90709 0.0413151 0.205731 -11.8643 0.410351 3.18621 -11.8363 -1.28198 3.17985 -0.0 0.0 -0.0 3.16222 6.61292 6.47753 -17.8746 -16.491 66.9161 0.804432 -21.7268 0.154379 -39.4679 -2.89475 4.02218 4.76987 25.6014 40.9453 -0.0 0.0 -0.0 6.09645 15.4256 -11.16 4.6982 18.1761 -65.6532 1.0553 27.5983 -0.259196 41.6778 0.439397 5.19021 1.8506 22.3134 -2.69446 0.0 0.0 0.0 21.1602 0.997931 0.509601 -37.3329 -0.305867 5.62127 18.868 12.4015 -2.59999 -15.9307 0.0 0.0 -0.0 0.0 -0.0 -19.7305 1.5106 -2.37192 0.973809 0.0413235 0.14372 41.1934 -9.20361 4.97398 -32.8604 0.0 0.0 0.0 0.0 0.0 
3471.21285745 730.924 -1494.92664147 151.498854888 75.4580758332 -155.099575799 -1.90729 0.0716188 0.197238 -1.90727 0.0589229 0.201396 -1.90704 0.00830531 0.209674 -1.90709 0.0413151 0.205731 -11.8643 0.410351 3.18621 -11.8363 -1.28198 3.17985 -0.0 0.0 -0.0 3.16222 6.61292 6.47753 -17.8746 -16.491 66.9161 0.804432 -21.7268 0.154379 -39.4679 -2.89475 4.02218 4.76987 25.6014 40.9453 -0.0 0.0 -0.0 6.09645 15.4256 -11.16 4.6982 18.1761 -65.6532 1.0553 27.5983 -0.259196 41.6778 0.439397 5.19021 1.8506 22.3134 -2.69446 0.0 0.0 0.0 21.1602 0.997931 0.509601 -37.3329 -0.305867 5.62127 18.868 12.4015 -2.59999 -15.9307 0.0 0.0 -0.0 0.0 -0.0 -19.7305 1.5106 -2.37192 0.973809 0.0413235 0.14372 41.1934 -9.20361 4.97398 -32.8604 0.0 0.0 0.0 0.0 0.0 
3459.2431841 729.665 -1493.39245646 155.400067126 74.2958181203 -158.799749698 -1.89275 0.135623 0.256311 -1.89272 0.119039 0.264422 -1.89212 0.0514109 0.285387 -1.89222 0.0958371 0.273686 -11.0888 0.663477 4.21531 -11.0392 -1.52454 4.25424 -0.0 0.0 -0.0 2.97223 6.44893 6.12532 -18.7272 -15.9139 67.6278 0.587151 -16.2176 0.0836567 -39.9442 -2.94523 4.05665 5.25137 26.5238 44.9778 -0.0 0.0 -0.0 6.11739 15.5089 -11.1993 6.91088 18.6169 -66.0761 1.23511 31.4586 -0.347867 42.3319 0.476081 5.26542 1.86361 22.0052 -2.9236 0.0 0.0 0.0 22.453 0.648966 0.0998292 -32.2891 -0.0503987 4.89 13.3107 9.39807 -1.87018 -17.5537 0.0 0.0 -0.0 0.0 -0.0 -20.1881 3.826 -2.35069 1.1622 0.0495997 0.171444 40.8468 -6.15416 4.93154 -32.7815 0.0 0.0 0.0 0.0 0.0 
3449.16379799 726.629 -1491.94459016 156.927646892 74.3111685887 -160.305117994 -1.85554 0.239243 0.33974 -1.8555 0.21714 0.354275 -1.85406 0.125078 0.396252 -1.85424 0.186089 0.371525 -9.74527 0.534871 4.63502 -9.68472 -2.14914 4.6605 -0.0 0.0 -0.0 2.71907 6.81895 5.69011 -19.8061 -14.9545 67.9166 0.415565 -11.6325 0.0423311 -40.5217 -3.00681 4.09787 5.61193 28.1062 48.1834 -0.0 0.0 -0.0 6.18914 14.9988 -11.3879 9.1291 18.9701 -66.0086 1.48133 36.2692 -0.485187 42.5201 0.486789 5.28697 1.94527 22.8528 -3.06227 0.0 0.0 0.0 23.8425 0.149364 -0.397996 -28.0269 0.114568 4.25686 8.73823 8.0583 -1.24738 -17.9375 0.0 0.0 -0.0 0.0 -0.0 -20.6727 5.31464 -2.57058 1.41898 0.0610277 0.209187 40.5934 -4.51567 4.90887 -32.4049 0.0 0.0 0.0 0.0 0.0 
3449.11123493 726.629 -1491.55770489 157.171944922 74.1482385072 -160.558971024 -1.85554 0.239243 0.33974 -1.8555 0.21714 0.354275 -1.85406 0.125078 0.396252 -1.85424 0.186089 0.371525 -9.74527 0.534871 4.63502 -9.68472 -2.14914 4.6605 -0.0 0.0 -0.0 2.71907 6.81895 5.69011 -19.8061 -14.9545 67.9166 0.415565 -11.6325 0.0423311 -40.5217 -3.00681 4.09787 5.61193 28.1062 48.1834 -0.0 0.0 -0.0 6.18914 14.9988 -11.3879 9.1291 18.9701 -66.0086 1.48133 36.2692 -0.485187 42.5201 0.486789 5.28697 1.94527 22.8528 -3.06227 0.0 0.0 0.0 23.8425 0.149364 -0.397996 -28.0269 0.114568 4.25686 8.73823 8.0583 -1.24738 -17.9375 0.0 0.0 -0.0 0.0 -0.0 -20.6727 5.31464 -2.57058 1.41898 0.0610277 0.209187 40.5934 -4.51567 4.90887 -32.4049 0.0 0.0 0.0 0.0 0.0 
3439.69270805 723.771 -1492.70213421 161.667895625 73.7899923208 -164.891819866 -1.77908 0.255984 0.424627 -1.77901 0.228445 0.440055 -1.77711 0.115965 0.482065 -1.77739 0.190642 0.457702 -9.28252 0.623657 4.24537 -9.23135 -1.74985 4.31161 -0.0 0.0 -0.0 2.32713 6.65034 4.97375 -21.1867 -14.1557 68.4578 0.339905 -9.55794 0.028417 -41.2549 -3.0856 4.14932 5.64302 27.878 48.4696 -0.0 0.0 -0.0 6.10438 13.1413 -11.3249 11.7876 19.2108 -66.4742 1.74039 40.7623 -0.646638 42.8221 0.504129 5.3215 1.81468 21.4499 -2.85995 0.0 0.0 0.0 24.3786 -0.123915 -0.395655 -22.1648 0.263643 3.36997 1.83985 7.31528 -0.268066 -18.3785 0.0 0.0 -0.0 0.0 -0.0 -20.4741 4.52473 -3.46946 1.912 0.0834443 0.281515 39.5791 -2.44265 4.82602 -31.9143 0.0 0.0 0.0 0.0 0.0 
3428.74307396 722.481 -1484.97803821 165.180125156 73.2874179802 -168.369090545 -1.7304 0.249484 0.436242 -1.73033 0.22122 0.451233 -1.72844 0.106681 0.491088 -1.72873 0.1829 0.468077 -8.09671 0.104265 4.218 -8.04512 -2.78399 4.20153 -0.0 0.0 -0.0 2.51775 6.92965 5.33516 -23.1333 -13.5018 68.4707 0.296498 -8.35584 0.0216586 -42.2238 -3.19071 4.21576 5.98075 29.6276 51.5896 -0.0 0.0 -0.0 6.22714 12.1039 -11.6468 14.3001 20.1197 -66.4058 1.87669 42.908 -0.737563 42.3668 0.478057 5.26941 1.90642 21.2006 -3.58031 0.0 0.0 0.0 25.1012 0.169372 1.02467 -13.4814 0.316335 2.03995 -1.87821 5.45335 0.276426 -17.008 0.0 0.0 -0.0 0.0 -0.0 -20.8692 6.78154 -3.2636 2.4057 0.106516 0.35375 39.854 -0.946031 4.8571 -31.6661 0.0 0.0 0.0 0.0 0.0 
3428.68506277 722.481 -1484.11707301 165.462908123 72.9599109677 -168.664598789 -1.7304 0.249484 0.436242 -1.73033 0.22122 0.451233 -1.72844 0.106681 0.491088 -1.72873 0.1829 0.468077 -8.09671 0.104265 4.218 -8.04512 -2.78399 4.20153 -0.0 0.0 -0.0 2.51775 6.92965 5.33516 -23.1333 -13.5018 68.4707 0.296498 -8.35584 0.0216586 -42.2238 -3.19071 4.21576 5.98075 29.6276 51.5896 -0.0 0.0 -0.0 6.22714 12.1039 -11.6468 14.3001 20.1197 -66.4058 1.87669 42.908 -0.737563 42.3668 0.478057 5.26941 1.90642 21.2006 -3.58031 0.0 0.0 0.0 25.1012 0.169372 1.02467 -13.4814 0.316335 2.03995 -1.87821 5.45335 0.276426 -17.008 0.0 0.0 -0.0 0.0 -0.0 -20.8692 6.78154 -3.2636 2.4057 0.106516 0.35375 39.854 -0.946031 4.8571 -31.6661 0.0 0.0 0.0 0.0 0.0 
3420.2191453 723.654 -1482.01920937 168.405638416 71.6922799479 -171.111396473 -1.74865 0.0606779 0.375712 -1.74858 0.0366476 0.378812 -1.74826 -0.0553021 0.376541 -1.74845 0.00485914 0.380549 -5.71934 0.477172 4.55101 -5.65686 -2.49548 4.69501 -0.0 0.0 -0.0 2.61066 7.17334 5.5172 -23.9824 -12.3887 68.7523 0.284306 -8.0168 0.0199226 -42.3461 -3.20405 4.22402 5.9007 31.8393 50.5895 -0.0 0.0 -0.0 6.11008 10.2578 -11.4982 16.3212 21.3014 -67.1344 2.10716 46.2226 -0.899353 42.5444 0.488181 5.28976 1.76236 20.5664 -2.92317 0.0 0.0 0.0 24.1811 -0.273923 1.37864 -7.52671 0.235935 1.1302 -3.47366 3.51767 0.514207 -17.1799 0.0 0.0 -0.0 0.0 -0.0 -20.3983 7.01276 -3.8771 1.79691 0.0781553 0.264647 39.5989 1.4792 4.85381 -32.1773 0.0 0.0 0.0 0.0 0.0 
3408.17003887 716.553 -1476.16889632 170.035216974 70.8005805646 -172.74208526 -1.75578 0.0795778 0.296262 -1.75573 0.0605647 0.300725 -1.75536 -0.0133874 0.306471 -1.75549 0.0351818 0.304739 -4.77806 0.25272 3.81881 -4.73253 -2.41998 3.94465 -0.0 0.0 -0.0 2.35336 8.14054 5.12117 -24.979 -11.5458 68.0369 0.340998 -9.58812 0.0285989 -42.4841 -3.21913 4.23331 5.80498 31.5618 49.7376 -0.0 0.0 -0.0 5.88878 9.59131 -11.0675 19.1267 21.9234 -66.0696 2.36221 49.4763 -1.08852 43.6834 0.554584 5.41947 1.76339 19.7437 -3.3083 0.0 0.0 0.0 25.5239 -0.288499 2.35186 -1.2207 0.0483346 0.181094 -5.37444 3.20085 0.798954 -17.0563 0.0 0.0 -0.0 0.0 -0.0 -19.9382 6.36462 -4.02298 -0.361402 -0.0147124 -0.0535095 40.2157 -0.208247 4.89294 -32.7535 0.0 0.0 0.0 0.0 0.0 
3311.58417345 696.019 -1441.20009274 174.396084741 72.9624851871 -175.732176627 -1.9267 0.3217 0.315227 -1.9267 0.300989 0.335059 -1.92485 0.210596 0.39813 -1.92497 0.27083 0.359874 0.461832 3.96055 2.53683 0.488927 4.94369 3.13944 -0.0 0.0 -0.0 1.60064 8.45572 3.8169 -26.6455 -11.5769 70.2461 0.184657 -5.22664 0.00842826 -40.6974 -3.02564 4.1103 2.2325 26.9771 23.6778 -0.0 0.0 -0.0 2.39232 -1.54817 -4.72691 28.3141 32.3054 -72.0939 3.81718 62.1113 -2.29918 51.9194 1.10962 6.31478 0.090102 -0.282329 -0.720191 0.0 0.0 0.0 28.0441 -1.89045 3.58353 1.34009 -0.057499 -0.197597 -4.08735 19.2962 0.614219 -18.7865 0.0 0.0 -0.0 0.0 -0.0 -26.2908 8.60349 -4.51341 0.466131 0.0194746 0.0688798 29.6147 -4.79638 3.84784 -28.9377 0.0 0.0 0.0 0.0 0.0 
3311.6351618 696.019 -1440.80279543 174.423544085 72.8762815955 -175.760903014 -1.9267 0.3217 0.315227 -1.9267 0.300989 0.335059 -1.92485 0.210596 0.39813 -1.92497 0.27083 0.359874 0.461832 3.96055 2.53683 0.488927 4.94369 3.13944 -0.0 0.0 -0.0 1.60064 8.45572 3.8169 -26.6455 -11.5769 70.2461 0.184657 -5.22664 0.00842826 -40.6974 -3.02564 4.1103 2.2325 26.9771 23.6778 -0.0 0.0 -0.0 2.39232 -1.54817 -4.72691 28.3141 32.3054 -72.0939 3.81718 62.1113 -2.29918 51.9194 1.10962 6.31478 0.090102 -0.282329 -0.720191 0.0 0.0 0.0 28.0441 -1.89045 3.58353 1.34009 -0.057499 -0.197597 -4.08735 19.2962 0.614219 -18.7865 0.0 0.0 -0.0 0.0 -0.0 -26.2908 8.60349 -4.51341 0.466131 0.0194746 0.0688798 29.6147 -4.79638 3.84784 -28.9377 0.0 0.0 0.0 0.0 0.0 
